# xmcd CD database file
# Copyright (C) 1993-1998 Ti Kan
#
# Track frame offsets:
#	150
#	19360
#	33310
#	44035
#	55507
#	70807
#	83632
#	95257
#	107707
#	120307
#	135155
#	150005
#	161627
#	175802
#	186077
#
# Disc length: 2668 seconds
#
# Revision: 2
# Processed by: cddbd v1.4b41PL1 Copyright (c) Steve Scherf et al.
# Submitted via: xmcd 2.1 PL2
#
DISCID=ae0a6a0f
DTITLE=King Pleasure And The Biskuit Boys - This Is It!
DYEAR=1900
DGENRE=
TTITLE0=Mr. Blues Is Coming To Town/Oh Babe
TTITLE1=Squeeze Me
TTITLE2=Lovin' Machine
TTITLE3=Bongo Boogie
TTITLE4=Fish Man
TTITLE5=House Party
TTITLE6=Jumpin' From Six To Six
TTITLE7=This Is It
TTITLE8=Why Don't You Do Right?
TTITLE9=Train Kept A-Rollin'
TTITLE10=Bad Bad Whiskey
TTITLE11=Drinkin' Wine Spo-Dee-O-Dee
TTITLE12=Ain't Nobody Here But Us Chickens
TTITLE13=Chicken Rhythm
TTITLE14=All Night Long
EXTD=
EXTT0=
EXTT1=
EXTT2=
EXTT3=
EXTT4=
EXTT5=
EXTT6=
EXTT7=
EXTT8=
EXTT9=
EXTT10=
EXTT11=
EXTT12=
EXTT13=
EXTT14=
PLAYORDER=
